{
  "asset": {
    "version": "2.0"
  },
  "meshes": [
    {
      "primitives": [
        {
          "attributes": {
            "POSITION": 0
          },
          "indices": 1
        }
      ]
    }
  ],
  "accessors": [
    {
      "bufferView": 0,
      "componentType": 5126,
      "count": 3,
      "type": "VEC3",
      "min": [-0.5, -0.5, 0.0], 
      "max": [0.5, 0.5, 0.0],   
      "byteOffset": 0
  },
    {
      "bufferView": 1,
      "componentType": 5123,  
      "count": 3,            
      "type": "SCALAR",
      "byteOffset": 0        
    }
  ],
  "bufferViews": [
    {
      "buffer": 0,
      "byteOffset": 0,
      "byteLength": 36,      
      "target": 34962         
    },
    {
      "buffer": 0,
      "byteOffset": 36,
      "byteLength": 6,       
      "target": 34963         
    }
  ],
  "buffers": [
    {
      "byteLength": 42,      
      "uri": "triangle.bin"
    }
  ]
}
